<svg width="103" height="116" viewBox="0 0 103 116" fill="none" xmlns="http://www.w3.org/2000/svg">
<path fill-rule="evenodd" clip-rule="evenodd" d="M58.9394 56.1602C60.7462 54.5766 61.981 53.0067 62.8632 51.7414C71.2581 39.6104 65.7255 27.6448 57.5902 19.2196C55.4118 16.9608 51.2852 14.353 47.3435 13.9617C44.5739 13.6855 41.8977 14.4793 39.9617 17.0919C37.8418 19.9326 37.5014 23.8841 38.1629 27.9571C39.1151 33.8491 42.1399 39.9998 44.405 43.17C47.0187 46.8258 51.6634 51.9451 56.8554 56.2415C54.7933 57.7978 52.1117 59.311 48.576 60.4704C47.0057 60.9916 45.1332 61.159 43.1622 61.0494C43.3249 57.8279 42.8965 54.4852 41.8036 51.1608C40.8812 48.368 37.8735 42.992 34.3062 39.9544C31.7581 37.7884 28.9212 36.8333 26.3112 38.4303C23.0724 40.4185 22.2621 43.4303 22.7602 46.5669C23.4594 50.9839 26.8557 55.6439 29.2716 57.6216C32.0836 59.9208 37.0689 61.7731 41.7989 62.2769C40.7106 73.1826 32.5084 82.3778 20.9369 83.7298C20.5928 83.7739 20.315 84.1076 20.3153 84.4741C20.3256 84.8459 20.6208 85.1152 20.9649 85.0712C33.208 83.638 41.9035 73.9187 43.0678 62.3789C45.1664 62.4902 47.1725 62.3128 48.8506 61.7573C52.7449 60.4775 55.6599 58.7884 57.8636 57.0603C58.8506 57.8462 59.8554 58.5983 60.8719 59.3037C65.4348 62.4747 70.1471 64.6267 74.076 64.4554C83.1549 64.0609 89.2931 57.0617 92.0795 48.5473C94.8364 40.1135 94.2886 30.2213 90.1336 23.9734C89.9397 23.6823 89.5418 23.6332 89.2522 23.8671C88.9625 24.101 88.8811 24.5253 89.075 24.8163C93.0293 30.7617 93.5145 40.1857 90.8842 48.2071C88.2832 56.148 82.6039 62.7376 74.1409 63.1084C70.3997 63.2647 65.9671 61.1668 61.6296 58.1535C60.7263 57.526 59.8306 56.8596 58.9394 56.1602ZM41.8937 60.9463C42.0247 57.9321 41.6213 54.8111 40.5949 51.7024C39.7176 49.0439 36.8656 43.9339 33.4566 41.0351C31.3439 39.2382 29.034 38.2574 26.8727 39.5868C24.2269 41.2031 23.6098 43.6758 24.015 46.231C24.6557 50.3436 27.8488 54.6813 30.1032 56.5262C32.7435 58.6879 37.4396 60.455 41.8937 60.9463ZM57.9463 55.3614C59.7651 53.8039 60.9919 52.2492 61.8629 51.0054C69.8243 39.5045 64.3744 28.2133 56.6638 20.2266C54.6357 18.1217 50.7974 15.674 47.1135 15.3052C44.806 15.0783 42.5482 15.6863 40.9277 17.8689C39.0273 20.4137 38.8205 23.9639 39.4098 27.6117C40.3288 33.2979 43.2591 39.2373 45.4419 42.2952C48.0555 45.9512 52.7279 51.0907 57.9463 55.3614Z" fill="#FBFBFB"/>
<path d="M24.5253 77.021L25.8272 75.9499L25.572 77.6163L24.4829 84.7288L28.5222 90.4815L29.3984 91.7293L27.8928 91.4884L11.7636 88.9077L10.3519 88.6818L11.456 87.7735L24.5253 77.021Z" fill="#F28F8F" stroke="#FBFBFB" stroke-width="1.28916" stroke-linecap="square"/>
</svg>
