<svg width="25" height="24" viewBox="0 0 25 24" fill="none" xmlns="http://www.w3.org/2000/svg">
<path fill-rule="evenodd" clip-rule="evenodd" d="M16.8571 0.974063C17.5933 0.974063 18.3284 1.07791 19.0273 1.31242C23.3338 2.71254 24.8856 7.43792 23.5893 11.5683C22.8543 13.6789 21.6525 15.6053 20.0785 17.1792C17.8255 19.3611 15.3532 21.2979 12.6918 22.9664L12.4001 23.1425L12.0967 22.9547C9.42601 21.2979 6.93964 19.3611 4.66562 17.1675C3.10216 15.5936 1.89923 13.6789 1.15251 11.5683C-0.165936 7.43792 1.38586 2.71254 5.73905 1.28792C6.07741 1.17125 6.42627 1.08957 6.7763 1.04407H6.91631C7.24417 0.996232 7.56969 0.974063 7.89639 0.974063H8.02473C8.75979 0.996232 9.47151 1.12458 10.1611 1.35909H10.2299C10.2766 1.38126 10.3116 1.40577 10.3349 1.42793C10.5928 1.51077 10.8366 1.60411 11.07 1.73246L11.5133 1.93081C11.6205 1.98795 11.7407 2.07525 11.8447 2.15071C11.9105 2.19852 11.9698 2.24156 12.0151 2.26917C12.0341 2.2804 12.0534 2.2917 12.073 2.30309C12.173 2.36149 12.2772 2.42232 12.3651 2.48969C13.6614 1.49911 15.2353 0.962396 16.8571 0.974063ZM19.9605 9.37545C20.4389 9.36262 20.8473 8.97875 20.8823 8.48755V8.3487C20.9173 6.71407 19.9267 5.23345 18.4204 4.66174C17.942 4.49722 17.417 4.75508 17.242 5.24512C17.0786 5.73516 17.3353 6.27187 17.8254 6.44571C18.5733 6.72574 19.0738 7.46196 19.0738 8.27753V8.3137C19.0516 8.58089 19.1321 8.83874 19.2955 9.03709C19.4588 9.23544 19.7039 9.35095 19.9605 9.37545Z" fill="#F28F8F"/>
</svg>
