<svg width="32" height="32" viewBox="0 0 32 32" fill="none" xmlns="http://www.w3.org/2000/svg">
<path d="M4.32583 8.10286C5.16236 7.51818 6.42339 7.63031 7.17449 8.25059L6.31304 6.99846C5.61978 6.00975 5.86807 4.94006 6.85767 4.24591C7.84727 3.55444 10.6514 5.4135 10.6514 5.4135C9.95195 4.415 10.0828 3.14952 11.0813 2.44915C12.0798 1.75145 13.4574 1.99262 14.1569 2.9929L23.4299 16.0926L22.2481 27.5504L12.385 23.9534L3.78208 11.198C3.07637 10.1933 3.32021 8.80768 4.32583 8.10286Z" fill="#D2A077"/>
<path d="M2.39832 15.3905C2.39832 15.3905 1.39093 13.9221 2.8602 12.9156C4.32769 11.9091 5.33419 13.3766 5.33419 13.3766L10.0072 20.1917C10.1683 19.9229 10.3445 19.6577 10.5412 19.3961L4.05537 9.93882C4.05537 9.93882 3.04886 8.47133 4.51724 7.46482C5.98473 6.45831 6.99124 7.9258 6.99124 7.9258L13.0917 16.8224C13.3186 16.6373 13.5509 16.4513 13.7903 16.2689L6.71803 5.95372C6.71803 5.95372 5.71152 4.48623 7.1799 3.47973C8.64739 2.47322 9.6539 3.94071 9.6539 3.94071L16.7262 14.2541C16.986 14.0948 17.2432 13.9568 17.5013 13.8109L10.8909 4.1712C10.8909 4.1712 9.88439 2.70371 11.3519 1.6972C12.8194 0.690694 13.8259 2.15818 13.8259 2.15818L20.8154 12.3514L21.8779 13.9017C17.4746 16.9221 17.0554 22.6043 19.5712 26.2734C20.0741 27.0076 20.8082 26.5048 20.8082 26.5048C17.7887 22.1006 18.7107 17.1517 23.1149 14.1322L21.8165 7.63391C21.8165 7.63391 21.3315 5.92169 23.0429 5.43579C24.7551 4.95078 25.241 6.66299 25.241 6.66299L26.7405 11.1162C27.335 12.8818 27.9677 14.6412 28.8051 16.3054C31.1697 21.0042 29.7574 26.8439 25.2988 29.9026C20.4354 33.2371 13.7867 31.9974 10.4513 27.1349L2.39832 15.3905Z" fill="#F3D2A2"/>
<path d="M10.6791 28.4776C7.11942 28.4776 3.52234 24.8805 3.52234 21.3208C3.52234 20.8287 3.16192 20.4309 2.66979 20.4309C2.17766 20.4309 1.74249 20.8287 1.74249 21.3208C1.74249 26.6604 5.33957 30.2575 10.6791 30.2575C11.1713 30.2575 11.5691 29.8223 11.5691 29.3302C11.5691 28.838 11.1713 28.4776 10.6791 28.4776Z" fill="#5DADEC"/>
<path d="M6.22949 30.2201C3.55971 30.2201 1.77985 28.4402 1.77985 25.7705C1.77985 25.2783 1.38206 24.8805 0.889927 24.8805C0.397797 24.8805 0 25.2783 0 25.7705C0 29.3302 2.66978 32 6.22949 32C6.72162 32 7.11942 31.6022 7.11942 31.11C7.11942 30.6179 6.72162 30.2201 6.22949 30.2201ZM21.3583 1.74243C20.867 1.74243 20.4683 2.14112 20.4683 2.63236C20.4683 3.1236 20.867 3.52229 21.3583 3.52229C24.918 3.52229 28.4777 6.71623 28.4777 10.6417C28.4777 11.1329 28.8764 11.5316 29.3676 11.5316C29.8588 11.5316 30.2575 11.1329 30.2575 10.6417C30.2575 5.73464 26.6978 1.74243 21.3583 1.74243Z" fill="#5DADEC"/>
<path d="M25.8079 0C25.3166 0 24.918 0.36131 24.918 0.85255C24.918 1.34379 25.3166 1.77985 25.8079 1.77985C28.4777 1.77985 30.2201 3.75994 30.2201 6.19211C30.2201 6.68335 30.6553 7.08204 31.1474 7.08204C31.6396 7.08204 32 6.68335 32 6.19211C32 2.77746 29.3676 0 25.8079 0Z" fill="#5DADEC"/>
</svg>
