<svg width="61" height="67" viewBox="0 0 61 67" fill="none" xmlns="http://www.w3.org/2000/svg">
<path fill-rule="evenodd" clip-rule="evenodd" d="M20.4098 62.3669C14.5851 60.7323 8.48696 59.9078 2.57133 59.1524C1.2972 58.994 0.114249 59.8777 0.023239 61.1227C-0.15878 62.3687 0.75185 63.5081 1.93498 63.6665C7.66858 64.3936 13.5837 65.1718 19.1353 66.7453C20.3184 67.0866 21.5931 66.384 21.9571 65.1754C22.3211 63.9677 21.5929 62.709 20.4098 62.3669Z" fill="#FBFBFB"/>
<path fill-rule="evenodd" clip-rule="evenodd" d="M38.0647 39.1932C28.6907 29.6272 18.1336 21.2925 8.9416 11.4699C8.12251 10.5525 6.66636 10.5033 5.75626 11.3597C4.84617 12.217 4.75551 13.6586 5.66561 14.576C14.8576 24.4269 25.4147 32.7889 34.7887 42.3831C35.6988 43.2786 37.1546 43.2914 38.0647 42.4104C38.8838 41.5303 38.9748 40.0888 38.0647 39.1932Z" fill="#FBFBFB"/>
<path fill-rule="evenodd" clip-rule="evenodd" d="M55.6316 2.3988C55.9046 7.87394 56.1771 13.3491 56.4502 18.8251C56.4502 20.0792 57.5428 21.0476 58.8169 20.9866C60.0911 20.9247 61.0006 19.8572 61.0006 18.6022C60.7276 13.1179 60.4551 7.63458 60.1821 2.15125C60.0911 0.897134 58.9988 -0.0648382 57.7247 0.00341908C56.5415 0.0716763 55.5406 1.14559 55.6316 2.3988Z" fill="#FBFBFB"/>
</svg>
