<svg width="68" height="43" viewBox="0 0 68 43" fill="none" xmlns="http://www.w3.org/2000/svg">
<path d="M49.189 13.051C48.0598 13.0846 46.916 13.0686 45.6976 13.0686V4.37282H39.8585C38.8346 8.9145 37.3573 10.7019 34.3368 10.6434C33.1666 10.6185 31.8853 10.1519 30.8702 9.53322C29.0126 8.40109 28.6001 6.40744 28.5957 4.26751C26.6942 4.26751 24.8351 4.26751 22.9994 4.26751V5.42304C23.2416 6.92489 23.6731 8.38999 24.2837 9.78334C21.2439 11.2155 18.3032 12.8491 15.4812 14.6731C15.1886 14.5137 14.8771 14.347 14.5626 14.1744C19.097 12.2041 21.234 10.1534 21.5148 7.6127C21.9419 3.74679 19.1862 0.653187 14.8157 0.0885865C9.72547 -0.566702 3.92149 2.4289 3.01901 8.56199C2.85055 9.62239 2.93832 10.7077 3.27498 11.7273C2.19843 12.0052 1.09995 12.2641 0 12.4981L1.22281 18.2494C1.36908 18.2187 4.06483 17.6439 7.39101 16.677C8.35254 17.3636 9.35006 17.9984 10.3793 18.5785C8.10773 20.6673 6.37736 22.9505 5.86395 25.3069C5.38711 27.4834 5.92392 29.5283 7.41587 31.2206C9.03508 33.0563 12.1769 34.1021 15.3846 34.1021C16.8835 34.1118 18.3732 33.8695 19.7917 33.3854C23.4382 32.1012 25.6264 29.2635 25.7888 25.6009C25.9351 22.3611 23.9034 20.0003 21.1915 18.0578C23.4661 16.7328 25.8097 15.5303 28.2125 14.4552C30.3875 15.8096 33.1857 16.3567 36.6362 16.1212C36.0613 16.6097 35.703 16.8994 35.3607 17.208C31.4933 20.6819 30.1476 26.2504 32.1354 30.5449C33.4694 33.4351 36.291 35.1465 39.231 34.8496C42.4109 34.5292 44.7468 32.5005 45.3743 29.1963C45.6961 27.4922 45.6449 25.7121 45.6917 23.9656C45.7385 22.2192 45.7034 20.4917 45.7034 18.6838H49.1949L49.189 13.051ZM8.9517 10.0349C8.85353 9.84494 8.81335 9.6303 8.83615 9.41767C9.22815 6.7658 11.646 5.88233 13.4349 5.88233C13.6456 5.8824 13.8562 5.89559 14.0653 5.92182C14.4266 5.96863 15.528 6.16024 15.6611 6.77019C14.9224 7.65219 12.3466 8.86623 8.9517 10.0349ZM17.8742 27.8155C15.3334 28.7282 12.3554 27.8988 11.8303 27.3196C11.5641 27.0168 11.548 26.8457 11.6123 26.5517C11.9049 25.2353 13.4568 23.4917 15.8717 21.6078C18.0116 22.8672 19.9673 24.2655 19.9249 25.3216C19.8824 26.1538 19.6148 27.1894 17.8698 27.8155H17.8742ZM40.0442 27.8725C40.0135 28.3932 39.2178 29.2299 38.7278 29.2635C38.2042 29.2986 37.3865 28.6785 37.1189 28.1387C35.9092 25.7121 37.3353 22.1973 40.1071 20.6161C40.1013 23.0661 40.1803 25.4766 40.034 27.8725H40.0442Z" fill="#FEA5A5"/>
<path d="M57.0665 18.9335C58.9346 18.9335 60.449 17.4191 60.449 15.551C60.449 13.6829 58.9346 12.1685 57.0665 12.1685C55.1984 12.1685 53.684 13.6829 53.684 15.551C53.684 17.4191 55.1984 18.9335 57.0665 18.9335Z" fill="#FEA5A5"/>
</svg>
