<svg width="128" height="121" viewBox="0 0 128 121" fill="none" xmlns="http://www.w3.org/2000/svg">
<path fill-rule="evenodd" clip-rule="evenodd" d="M101.314 68.5745C109.095 62.5858 116.598 55.9097 126.007 52.6178C126.567 52.4199 126.864 51.8087 126.669 51.2465C126.471 50.687 125.86 50.3898 125.298 50.5844C115.67 53.9541 107.963 60.7401 100.001 66.8688C99.528 67.2289 99.4409 67.9082 99.8043 68.3781C100.164 68.8507 100.841 68.9345 101.314 68.5745Z" fill="#FBFBFB"/>
<path fill-rule="evenodd" clip-rule="evenodd" d="M91.6658 58.0469C92.2747 53.9336 93.5452 50.1937 96.0267 46.8425C96.3815 46.3641 96.2798 45.6908 95.8045 45.3358C95.3258 44.9834 94.6501 45.0854 94.2987 45.5611C91.5999 49.2048 90.2016 53.259 89.5387 57.7298C89.4501 58.3183 89.855 58.867 90.4445 58.9526C91.0304 59.0406 91.5806 58.6327 91.6658 58.0469Z" fill="#FBFBFB"/>
<path fill-rule="evenodd" clip-rule="evenodd" d="M65.7191 39.4991C63.7859 34.8774 63.5685 30.2147 65.1529 25.4393C65.3395 24.8761 65.0343 24.2661 64.4692 24.0805C63.9074 23.8923 63.2972 24.1986 63.1106 24.7619C61.3581 30.0479 61.5934 35.2119 63.7337 40.3292C63.9615 40.8778 64.5953 41.1346 65.1415 40.9065C65.6913 40.6761 65.9502 40.045 65.7191 39.4991Z" fill="#FBFBFB"/>
<path fill-rule="evenodd" clip-rule="evenodd" d="M24.0187 64.8276C23.9873 66.1166 24.0708 67.4107 24.2842 68.6876C24.3789 69.2564 24.6613 70.3995 25.1761 71.1593C25.7219 71.971 26.4964 72.4018 27.4312 72.2027C28.6723 71.9373 29.3374 71.3225 29.6612 70.6141C29.9735 69.9326 29.9695 69.0928 29.6746 68.2011C29.1103 66.4972 27.4225 64.5607 26.2437 63.63C26.3583 62.355 26.5938 61.0925 26.9409 59.8587C29.5271 50.669 39.6914 45.0666 51.7172 45.9549C55.9267 46.2668 60.8935 50.0542 65.6094 54.6605C72.953 61.832 79.5803 71.1153 81.6042 73.7686C82.1054 74.4226 82.473 74.754 82.5679 74.8029C83.0272 75.0492 83.3834 74.9216 83.6073 74.8015C83.929 74.6243 84.1099 74.3895 84.2148 74.1497C84.3552 73.8236 84.373 73.435 84.1845 73.0102C84.0788 72.7769 83.8751 72.4977 83.6371 72.217C83.4699 72.024 83.2544 71.8396 83.1795 71.6649C82.7039 70.543 82.2992 69.3991 81.8826 68.2544C80.4747 64.4122 79.5211 60.5159 78.7175 56.5039C76.163 43.7565 73.0446 30.6266 75.213 17.5872C75.3101 17.0023 74.9154 16.4458 74.3283 16.3494C73.7445 16.2503 73.1903 16.6464 73.0902 17.2344C70.8769 30.5332 74.0033 43.9262 76.6075 56.9267C77.2916 60.3392 78.0821 63.6711 79.156 66.9565C75.6604 62.4354 70.6505 56.3156 65.4372 51.5321C60.801 47.2775 55.9672 44.1131 51.8753 43.8097C38.7014 42.8364 27.7003 49.2107 24.87 59.2758C24.5676 60.3528 24.3393 61.4529 24.1956 62.562C15.6583 59.1023 6.19843 62.5985 2.05655 70.9049C1.78997 71.4376 2.00752 72.083 2.53788 72.3487C3.07159 72.6117 3.71675 72.3966 3.98333 71.8639C7.71578 64.379 16.3741 61.3632 24.0187 64.8276ZM26.2004 66.5331C26.2389 67.1351 26.3089 67.7349 26.4064 68.3346C26.4607 68.6549 26.5888 69.2514 26.8335 69.7388C26.8919 69.8521 27.0114 70.0067 27.0682 70.0769C27.3911 70.004 27.6162 69.9128 27.7036 69.7198C27.8141 69.4799 27.7346 69.1899 27.6315 68.8776C27.3735 68.0933 26.8036 67.238 26.2004 66.5331Z" fill="#FBFBFB"/>
</svg>
