<svg width="384" height="22" viewBox="0 0 384 22" fill="none" xmlns="http://www.w3.org/2000/svg">
<path fill-rule="evenodd" clip-rule="evenodd" d="M163.074 2.10695C145.035 2.82898 127.208 3.71679 109.824 4.68739C85.2147 6.06043 60.6149 7.48083 36.1634 9.72979C28.4666 10.44 20.6504 10.8897 13.0017 11.7775C8.20035 12.3338 1.83386 13.1268 0.998337 13.2925C0.561325 13.3872 0.370672 13.5293 0.309067 13.5767C-0.124095 13.9081 -0.0450592 14.2276 0.199437 14.4761C0.29762 14.5827 0.545896 14.8432 1.23511 14.8787C47.3274 17.3052 94.4593 12.5705 140.607 12.0734C220.636 11.2212 303.091 14.6064 382.485 21.9925C383.178 22.0517 383.852 21.7557 383.948 21.3177C384.063 20.8916 383.563 20.4773 382.87 20.4181C303.341 13.0202 220.752 9.62313 140.569 10.4872C97.5607 10.9488 53.7035 15.1036 10.6357 13.6832C11.6252 13.5648 12.5955 13.4464 13.4811 13.3399C21.099 12.4521 28.8824 12.0142 36.5484 11.304C60.9479 9.05505 85.4977 7.63466 110.074 6.27345C140.569 4.56898 172.392 3.10123 204.465 2.41471C215.939 2.52124 227.374 2.62782 238.81 2.75802C263.548 3.0421 288.402 3.87066 313.083 4.9833C320.514 5.32656 327.945 5.68163 335.376 5.98938C337.84 6.09591 344.193 6.40361 345.079 6.37994C346.176 6.35627 346.388 5.78816 346.407 5.69347C346.465 5.48041 346.426 5.18448 345.887 4.93591C345.83 4.9004 345.483 4.78196 344.713 4.71094C299.838 0.520787 251.92 -0.177462 204.504 0.828648C154.488 0.390694 104.28 0.201222 54.3908 0C53.6766 0 53.0933 0.35515 53.0875 0.793104C53.0837 1.23106 53.6592 1.58622 54.3735 1.59806C90.4972 1.74009 126.804 1.88205 163.074 2.10695Z" fill="#FCFDFF"/>
</svg>
